#!OML:ASF X:\für Bonn\!DataBase\2005_08_12_Daniel\c3d\Daniel.ASF
:FULLY-SPECIFIED
:DEGREES
404
root 19.3032 1.23433 0.565188 -1700.95 257.496 145.938
lowerback 26.8259 -2.6049 0.912442
upperback 6.5868 -4.09727 -4.82736
thorax -7.92529 -2.26385 -4.50579
lowerneck -9.66215 0.725423 -4.3919
upperneck -0.186983 1.33514 1.91297
head 1.55249 0.678401 1.41897
rclavicle 3.89618e-014 2.83113e-014
rhumerus -408.82 -11.8805 285.243
rradius 15.3766
rwrist 63.045
rhand -21.9969 738.588
rfingers 7.12502
rthumb 4.41181 708.654
lclavicle 3.89618e-014 2.83113e-014
lhumerus -586.339 171.209 -471.831
lradius 21.1247
lwrist -51.5383
lhand -5.94485 -724.394
lfingers 7.12502
lthumb 19.8854 24.6087
rfemur -520.806 -196.786 563.426
rtibia 29.8813
rfoot -21.7882 -23.2049
rtoes 31.9105
lfemur -6.4796 734.83 -24.2881
ltibia 77.1888
lfoot 152.203 564.942
ltoes 24.5589
405
root 19.2994 1.23641 0.568561 -1701.11 257.495 146.081
lowerback 26.8171 -2.5942 0.898199
upperback 6.59978 -4.08621 -4.81794
thorax -7.9037 -2.25825 -4.49106
lowerneck -9.65666 0.727589 -4.45439
upperneck -0.199165 1.34402 1.92458
head 1.54713 0.682933 1.4339
rclavicle -5.22804e-014 1.5191e-013
rhumerus -409.204 -14.6921 288.221
rradius 14.1694
rwrist 67.0362
rhand -21.5598 738.56
rfingers 7.12502
rthumb 4.83379 708.635
lclavicle -5.22804e-014 1.5191e-013
lhumerus -586.562 170.104 -472.86
lradius 20.2838
lwrist -52.7161
lhand -5.7831 -724.336
lfingers 7.12502
lthumb 20.0409 24.6502
rfemur -520.766 -196.896 563.5
rtibia 29.8823
rfoot -21.6591 -23.2847
rtoes 31.8727
lfemur -6.32272 734.698 -24.2967
ltibia 76.9485
lfoot 152.515 564.9
ltoes 24.4631
406
root 19.2959 1.23785 0.57102 -1701.26 257.499 146.216
lowerback 26.8012 -2.57303 0.866328
upperback 6.62867 -4.0641 -4.78663
thorax -7.85695 -2.2469 -4.4456
lowerneck -9.67503 0.730097 -4.54218
upperneck -0.233717 1.35603 1.95855
head 1.53854 0.689597 1.46072
rclavicle 9.83984e-015 -6.23283e-014
rhumerus -409.852 -18.11 291.954
rradius 13.0424
rwrist 71.8155
rhand -20.9756 738.496
rfingers 7.12502
rthumb 5.39795 708.585
lclavicle 9.83984e-015 -6.23283e-014
lhumerus -586.729 168.895 -473.937
lradius 19.513
lwrist -54.0385
lhand -5.29336 -724.162
lfingers 7.12502
lthumb 20.5115 24.774
rfemur -520.723 -196.989 563.573
rtibia 29.8583
rfoot -21.4949 -23.3533
rtoes 31.8633
lfemur -6.15409 734.519 -24.2838
ltibia 76.6486
lfoot 152.908 564.822
ltoes 24.2646
407
root 19.2943 1.23971 0.573562 -1701.45 257.496 146.411
lowerback 26.793 -2.5535 0.830634
upperback 6.62958 -4.04681 -4.77375
thorax -7.84712 -2.23775 -4.41651
lowerneck -9.68141 0.73969 -4.55779
upperneck -0.228803 1.371 1.93977
head 1.54071 0.696396 1.45814
rclavicle -1.18277e-014 5.84613e-014
rhumerus -410.861 -21.484 295.856
rradius 12.1778
rwrist 76.5209
rhand -20.2155 738.309
rfingers 7.12502
rthumb 6.13181 708.418
lclavicle -1.18277e-014 5.84613e-014
lhumerus -586.915 167.894 -474.929
lradius 18.8927
lwrist -55.1695
lhand -4.51877 -723.959
lfingers 7.12502
lthumb 21.2557 24.8951
rfemur -520.722 -196.926 563.503
rtibia 29.8054
rfoot -21.047 -23.4205
rtoes 31.9638
lfemur -5.96988 734.305 -24.2913
ltibia 76.2847
lfoot 153.329 564.657
ltoes 24.1321
408
root 19.2926 1.23977 0.575409 -1701.49 257.513 146.437
lowerback 26.795 -2.54462 0.822935
upperback 6.64612 -4.03492 -4.74669
thorax -7.82589 -2.23175 -4.38583
lowerneck -9.65829 0.745473 -4.59907
upperneck -0.287673 1.3811 1.94675
head 1.51694 0.701675 1.46706
rclavicle -1.13307e-014 3.99666e-014
rhumerus -412.117 -24.6808 299.795
rradius 11.5642
rwrist 80.9079
rhand -19.3063 738.074
rfingers 7.12502
rthumb 7.00947 708.21
lclavicle -1.13307e-014 3.99666e-014
lhumerus -587.053 166.754 -476.013
lradius 18.3619
lwrist -56.5429
lhand -3.49738 -723.86
lfingers 7.12502
lthumb 22.2365 24.8806
rfemur -520.673 -196.977 563.571
rtibia 29.7399
rfoot -20.7937 -23.4897
rtoes 31.9986
lfemur -5.74381 734.015 -24.2696
ltibia 75.8445
lfoot 153.854 564.404
ltoes 24.1359
409
root 19.2911 1.24053 0.576009 -1701.57 257.544 146.5
lowerback 26.81 -2.52781 0.805741
upperback 6.65204 -4.01473 -4.71265
thorax -7.8213 -2.22144 -4.34419
lowerneck -9.70253 0.751948 -4.60557
upperneck -0.243265 1.39319 1.91924
head 1.53885 0.706671 1.46093
rclavicle 1.03269e-013 -1.27659e-013
rhumerus -413.456 -27.3832 303.398
rradius 11.1161
rwrist 84.5556
rhand -18.2812 737.78
rfingers 7.12502
rthumb 7.99896 707.951
lclavicle 1.03269e-013 -1.27659e-013
lhumerus -587.114 165.579 -477.108
lradius 17.8596
lwrist -57.9173
lhand -2.39591 -723.853
lfingers 7.12502
lthumb 23.2936 24.7583
rfemur -520.608 -197.051 563.674
rtibia 29.6525
rfoot -20.5084 -23.6165
rtoes 32.0483
lfemur -5.46862 733.724 -24.2032
ltibia 75.3237
lfoot 154.555 564.001
ltoes 24.2224
410
root 19.2909 1.24157 0.576674 -1701.58 257.566 146.518
lowerback 26.7847 -2.52143 0.771589
upperback 6.66541 -4.01179 -4.67529
thorax -7.78856 -2.21915 -4.28424
lowerneck -9.70013 0.775396 -4.62268
upperneck -0.285526 1.4257 1.88644
head 1.52342 0.721901 1.45406
rclavicle 3.77691e-014 -5.81088e-014
rhumerus -414.766 -29.6947 306.687
rradius 10.7755
rwrist 87.6324
rhand -17.3077 737.512
rfingers 7.12502
rthumb 8.93841 707.721
lclavicle 3.77691e-014 -5.81088e-014
lhumerus -587.118 164.376 -478.184
lradius 17.4059
lwrist -59.2847
lhand -1.39411 -723.932
lfingers 7.12502
lthumb 24.2544 24.5538
rfemur -520.545 -197.168 563.795
rtibia 29.5587
rfoot -20.2589 -23.7311
rtoes 32.1525
lfemur -5.15896 733.378 -24.1688
ltibia 74.7027
lfoot 155.321 563.489
ltoes 24.32
411
root 19.2898 1.24306 0.578098 -1701.62 257.603 146.548
lowerback 26.7726 -2.51696 0.768358
upperback 6.6775 -4.00347 -4.64138
thorax -7.76544 -2.21477 -4.2476
lowerneck -9.68718 0.789966 -4.64066
upperneck -0.307648 1.44628 1.8672
head 1.51312 0.731571 1.45136
rclavicle 6.87795e-014 6.24758e-014
rhumerus -415.867 -31.3767 309.269
rradius 10.5411
rwrist 89.7353
rhand -16.4011 737.321
rfingers 7.12502
rthumb 9.81322 707.569
lclavicle 6.87795e-014 6.24758e-014
lhumerus -587.118 163.388 -479.09
lradius 17.1016
lwrist -60.2589
lhand -0.506304 -724.151
lfingers 7.12502
lthumb 25.1053 24.2182
rfemur -520.446 -197.349 563.979
rtibia 29.4599
rfoot -20.2276 -23.7729
rtoes 32.2275
lfemur -4.79133 733.02 -24.125
ltibia 73.9994
lfoot 156.154 562.906
ltoes 24.1993
412
root 19.2897 1.24361 0.580452 -1701.6 257.648 146.525
lowerback 26.7711 -2.51708 0.773425
upperback 6.6913 -3.99813 -4.59621
thorax -7.74566 -2.21193 -4.20192
lowerneck -9.70747 0.802382 -4.66552
upperneck -0.311141 1.46657 1.83542
head 1.51481 0.740619 1.4465
rclavicle 4.59193e-014 -6.43721e-015
rhumerus -416.487 -32.3069 310.818
rradius 10.4079
rwrist 90.6822
rhand -15.6522 737.135
rfingers 7.12502
rthumb 10.5357 707.419
lclavicle 4.59193e-014 -6.43721e-015
lhumerus -587.125 162.503 -479.855
lradius 16.9726
lwrist -60.9314
lhand 0.138808 -724.455
lfingers 7.12502
lthumb 25.7233 23.8261
rfemur -520.343 -197.529 564.175
rtibia 29.3467
rfoot -20.1543 -23.8671
rtoes 32.1641
lfemur -4.3917 732.623 -24.0855
ltibia 73.2143
lfoot 157.01 562.258
ltoes 23.7683
413
root 19.2881 1.24483 0.582885 -1701.49 257.688 146.406
lowerback 26.7492 -2.52879 0.793682
upperback 6.70579 -4.00423 -4.56043
thorax -7.71756 -2.21483 -4.17226
lowerneck -9.72118 0.817588 -4.67421
upperneck -0.307975 1.48861 1.80505
head 1.51748 0.750596 1.4393
rclavicle -1.18376e-013 1.25105e-013
rhumerus -416.7 -32.6884 311.528
rradius 10.3277
rwrist 90.8147
rhand -15.0923 737.051
rfingers 7.12502
rthumb 11.0758 707.363
lclavicle -1.18376e-013 1.25105e-013
lhumerus -587.087 162.008 -480.301
lradius 16.9933
lwrist -60.9434
lhand 0.414209 -724.747
lfingers 7.12502
lthumb 25.9871 23.496
rfemur -520.222 -197.724 564.388
rtibia 29.2136
rfoot -20.242 -23.9294
rtoes 32.1036
lfemur -3.96725 732.194 -24.0558
ltibia 72.3637
lfoot 157.837 561.593
ltoes 23.2574
414
root 19.2896 1.24644 0.58594 -1701.35 257.729 146.265
lowerback 26.7227 -2.54097 0.836726
upperback 6.71709 -4.00477 -4.52921
thorax -7.69197 -2.21518 -4.16292
lowerneck -9.70507 0.825532 -4.70112
upperneck -0.340394 1.50116 1.78496
head 1.50353 0.756323 1.43741
rclavicle 1.00386e-014 -1.03306e-014
rhumerus -416.485 -32.5383 311.375
rradius 10.3366
rwrist 90.0855
rhand -14.635 737.053
rfingers 7.12502
rthumb 11.5167 707.39
lclavicle 1.00386e-014 -1.03306e-014
lhumerus -586.991 161.648 -480.624
lradius 17.0755
lwrist -60.5668
lhand 0.502997 -725.103
lfingers 7.12502
lthumb 26.0721 23.1277
rfemur -520.097 -197.857 564.554
rtibia 29.039
rfoot -20.2819 -23.9594
rtoes 31.9839
lfemur -3.52769 731.731 -24.0498
ltibia 71.4441
lfoot 158.682 560.887
ltoes 22.7839
415
root 19.2924 1.24839 0.588998 -1701.2 257.785 146.116
lowerback 26.7039 -2.56655 0.882155
upperback 6.72243 -4.02128 -4.48365
thorax -7.67736 -2.22326 -4.13324
lowerneck -9.72569 0.843326 -4.77603
upperneck -0.309205 1.53385 1.77916
head 1.51601 0.771856 1.45076
rclavicle 1.06052e-013 -2.56727e-014
rhumerus -415.933 -31.9672 310.621
rradius 10.403
rwrist 88.9091
rhand -14.3643 737.099
rfingers 7.12502
rthumb 11.7779 707.45
lclavicle 1.06052e-013 -2.56727e-014
lhumerus -586.92 161.44 -480.778
lradius 17.2294
lwrist -59.768
lhand 0.346621 -725.383
lfingers 7.12502
lthumb 25.9223 22.8696
rfemur -519.931 -198.036 564.774
rtibia 28.821
rfoot -20.2937 -24.0724
rtoes 31.8473
lfemur -3.04972 731.251 -24.034
ltibia 70.4594
lfoot 159.532 560.204
ltoes 22.4896
